<?xml version="1.0" encoding="UTF-8"?>
<svg id="Capa_1" data-name="Capa 1" xmlns="http://www.w3.org/2000/svg" version="1.1" viewBox="0 0 2483.8 966.6">
  <defs>
    <style>
      .cls-1 {
        fill: #07417d;
      }

      .cls-1, .cls-2 {
        fill-rule: evenodd;
        stroke-width: 0px;
      }

      .cls-2 {
        fill: #c00c1a;
      }
    </style>
  </defs>
  <path class="cls-1" d="M2373.1,347.2v46.3h-71.9c-18.8,0-32.7,1.3-41.2,4-8.4,2.5-15.6,7.6-21.4,15-3.8,5.2-6.4,10.4-7.7,15.7-1.4,5.2-2.6,14.2-3.6,26.7h145.7v46.5h-145.7c1.7,22.7,8.4,38.3,19.5,47.1,11.2,8.7,30.1,13.2,56.7,13.2h69.6v46.6h-71.9c-19.6,0-36.8-1.3-51.4-3.8-23.4-3.8-41.9-14-55.7-30.8-19.7-23.9-29.4-56.4-29.4-97.5s13.8-80.8,41.6-106.1c9.5-8.6,19.5-14.5,30.4-17.8,10.8-3.4,25.3-5.1,43.3-5.1h93.1M1962.1,561.7h75.2c7.8,0,13.6-.4,17.3-1.2,3.7-.9,7.1-2.6,10.2-5.1,8.2-6.1,12-14.8,12-25.8s-3.7-18.4-11.3-23.3c-5.5-3.6-14.4-5.3-27.1-5.3h-76.4v60.7h.1ZM1962.1,454.4h75.2c7.8,0,13.6-.5,17.2-1.2,3.5-.9,7-2.5,10.3-5.1,8.2-6.3,12.1-14.9,12.1-25.8s-3.8-18.3-11.4-23.6c-5.3-3.4-14.4-5.2-27.1-5.2h-76.4v60.9h0ZM1907.2,608.3v-261.1h146.5c22.9,0,39.5,2.6,50.2,7.8,12.2,6.2,21.3,16.4,27.4,30.4,4.5,9.7,6.8,19.8,6.8,30.2s-3.7,26.2-10.9,37.8c-7,11.8-16,20-26.9,24.4,25.1,11.6,37.5,32,37.5,61.5s-3.8,31.2-11.8,42.8c-6.8,9.9-15.8,16.7-26.7,20.4-11,3.8-27.4,5.8-48.9,5.8h-143.2ZM1689,347.2v156.4c0,12.5,1,22.2,2.9,29.2,2.1,6.8,5.6,12.9,10.4,17.6,11.1,10.6,26.3,16.1,45.6,16.1s23.3-2.2,32.5-6.3c9.2-4.3,15.6-9.9,19.3-17.2,3.6-7.4,5.4-20.5,5.4-39.4v-156.4h55.1v153.7c0,20.3-1.9,37.1-6.2,50.3-4.3,13.1-10.9,23.9-19.8,31.9-20.4,18.1-49.4,27.1-87.1,27.1s-69.3-8.9-87.7-26.5c-9.8-9.4-16.2-19.7-19.9-31-3.7-11.3-5.6-27.2-5.6-47.7v-157.8h55.1ZM1467.6,393.5h-82.7v-46.3h223.6v46.3h-85.9v214.7h-55.1v-214.7h0ZM1215.6,476.2l-85.2-129h67.5l51,85.9,55.4-85.9h67l-88.1,129,88.1,132.1h-65.2l-57.2-89.6-55.7,89.6h-65.9l88.3-132.1ZM1108.3,347.2v46.3h-71.9c-18.9,0-32.6,1.3-41.2,4-8.5,2.5-15.7,7.6-21.4,15-3.8,5.2-6.4,10.4-7.8,15.7-1.3,5.2-2.5,14.2-3.6,26.7h145.8v46.5h-145.7c1.8,22.7,8.5,38.3,19.5,47.1,11.2,8.7,30.1,13.2,56.8,13.2h69.5v46.6h-71.9c-19.6,0-36.9-1.3-51.6-3.8-23.3-3.8-41.8-14-55.7-30.8-19.6-23.9-29.3-56.4-29.3-97.5s13.8-80.8,41.6-106.1c9.4-8.6,19.5-14.5,30.3-17.8,10.8-3.4,25.3-5.1,43.5-5.1h93.1ZM693.8,416.7v191.5h-52.5v-261h70.6l103.1,194.3v-194.3h52.7v261.1h-68l-105.9-191.6ZM474.7,389.4c-25.6,0-43.8,8.5-54.7,25.1-8.7,13.1-12.9,33.9-12.9,62.7s5.4,53.2,16.3,67.5c10.6,14.1,27.9,21.2,51.4,21.2s39.6-7.1,50.4-21.4c10.8-14.4,16.2-36.6,16.2-66.7s-4.3-48.1-13.1-62.6c-10.3-17-28.3-25.6-53.6-25.8M474.3,345.4c25.7,0,48.6,4.5,68.3,13.4,23.1,10.6,39.3,28.5,48.5,53.3,7.4,19.7,10.9,42.8,10.9,69.4s-4.4,49.4-13.5,68.9c-10.9,23.4-28,39.8-50.9,48.9-17.3,7-37.2,10.3-59.4,10.3s-54.6-5.5-76.4-16.4c-18.1-9.2-31.9-23.5-41.5-43.1-9.4-19.5-14.3-43.3-14.3-71.2,0-49.7,12.4-85.2,37-106.4,20.8-17.8,51.2-26.8,91.3-27.1M329.3,561.7v46.6h-90.4c-17.2,0-30.3-1-39.5-2.7-31.7-6.3-54.3-24.2-67.8-53.7-9-19.7-13.2-44.3-13.2-73.5s6.7-63.6,20.3-85.7c9.8-15.8,22.8-27.3,39.2-34.6,16.4-7.3,37.6-10.8,63.6-10.8h87.8v46.3h-81.5c-24.8,0-42.8,6.7-54.3,20-9.6,10.9-14.4,30.8-14.4,59.6s7.5,63.7,22.3,75.9c10.4,8.5,26.5,12.6,48.3,12.6h79.6Z"/>
  <path class="cls-2" d="M1143.6,75.9c-288.5,44.7-474.1,120.2-538.8,208.7H117.9c72.5-108.3,494.9-194.5,1026.1-209.3l-.4.6"/>
  <path class="cls-2" d="M1346.9,75.9c288.9,44.7,494.1,120.2,558.9,208.7h467.9c-72.7-108.3-495.1-194.5-1026.2-209.3l-.6.6"/>
  <path class="cls-2" d="M1144,877.7c-531.2-14.9-953.6-101-1026.1-209.5h487c63.6,88.4,249.8,162.2,539.2,204.4v5.1"/>
  <path class="cls-2" d="M1347.3,877.7c531.1-14.9,953.5-101,1026.1-209.5h-468.1c-63.4,88.4-268.7,162.2-558.1,204.4v5.1"/>
</svg>