<?xml version="1.0" encoding="utf-8"?>
<!-- Generator: Adobe Illustrator 16.0.0, SVG Export Plug-In . SVG Version: 6.00 Build 0)  -->
<!DOCTYPE svg PUBLIC "-//W3C//DTD SVG 1.1//EN" "http://www.w3.org/Graphics/SVG/1.1/DTD/svg11.dtd">
<svg version="1.1" id="Layer_1" xmlns="http://www.w3.org/2000/svg" xmlns:xlink="http://www.w3.org/1999/xlink" x="0px" y="0px"
	 width="595.28px" height="841.89px" viewBox="0 0 595.28 841.89" enable-background="new 0 0 595.28 841.89" xml:space="preserve">
<g>
	<polygon fill="#FFFFFF" points="191.496,438.381 191.496,424.567 213.402,424.567 213.402,414.662 191.496,414.662 
		191.496,404.125 219.012,404.125 219.012,394.189 175.893,394.189 175.893,448.313 220.18,448.313 220.18,438.381 	"/>
	<path fill="#FFFFFF" d="M424.827,408.711c-1.676-3.389-4.047-6.293-7.042-8.641c-2.962-2.316-6.531-4.114-10.605-5.344
		c-4.039-1.212-8.521-1.832-13.318-1.832c-5.14,0-9.843,0.681-13.979,2.021c-4.173,1.354-7.776,3.286-10.704,5.741
		c-2.959,2.479-5.268,5.475-6.861,8.902c-1.596,3.432-2.404,7.24-2.404,11.318c0,4.216,0.771,8.131,2.298,11.626
		c1.531,3.513,3.787,6.562,6.703,9.07c2.891,2.483,6.458,4.432,10.607,5.787c4.108,1.343,8.84,2.022,14.071,2.022
		c3.271,0,6.412-0.342,9.333-1.014c2.924-0.673,5.662-1.643,8.141-2.878c2.49-1.245,4.767-2.762,6.764-4.514
		c2.006-1.749,3.736-3.733,5.148-5.895c1.413-2.17,2.509-4.539,3.257-7.037c0.749-2.503,1.126-5.145,1.126-7.847
		C427.36,415.972,426.508,412.11,424.827,408.711z M393.771,403.219c2.686,0,5.129,0.438,7.263,1.293
		c2.11,0.85,3.93,2.06,5.407,3.588c1.479,1.533,2.63,3.404,3.426,5.557c0.809,2.182,1.216,4.656,1.216,7.354
		c0,2.35-0.407,4.643-1.214,6.815c-0.804,2.161-1.98,4.094-3.501,5.75c-1.517,1.65-3.402,2.994-5.599,3.986
		c-2.188,0.994-4.723,1.494-7.537,1.494c-2.821,0-5.325-0.467-7.449-1.39c-2.1-0.911-3.873-2.194-5.275-3.812
		c-1.415-1.637-2.497-3.6-3.213-5.843c-0.735-2.287-1.11-4.83-1.11-7.553c0-2.636,0.437-5.044,1.292-7.161
		c0.848-2.103,2.051-3.924,3.566-5.405c1.521-1.484,3.369-2.643,5.498-3.448C388.7,403.629,391.132,403.219,393.771,403.219z"/>
	<path fill="#FFFFFF" d="M491.778,410.4c-1.395-3.238-3.646-6.104-6.692-8.525c-2.996-2.379-6.89-4.275-11.57-5.645
		c-4.628-1.354-10.312-2.041-16.896-2.041h-19.313v54.124h18.821c4.532,0,8.654-0.332,12.245-0.982
		c3.615-0.653,6.861-1.591,9.64-2.791c2.813-1.218,5.255-2.694,7.252-4.404c2.01-1.711,3.672-3.627,4.941-5.691
		c1.269-2.064,2.205-4.304,2.785-6.655c0.567-2.316,0.857-4.743,0.857-7.202C493.849,417.021,493.15,413.594,491.778,410.4z
		 M452.909,404.093h2.993c4.084,0,7.566,0.483,10.353,1.438c2.736,0.937,4.969,2.186,6.635,3.71c1.638,1.5,2.834,3.227,3.559,5.14
		c0.748,1.963,1.123,4.018,1.123,6.109c0,3.023-0.552,5.68-1.643,7.89c-1.085,2.211-2.62,4.071-4.556,5.526
		c-1.979,1.486-4.371,2.617-7.108,3.362c-2.799,0.757-5.902,1.144-9.217,1.144h-2.139V404.093z"/>
	<path fill="#FFFFFF" d="M160.539,420.496v-0.011h-24.105c0,0,1.741,7.437,10.561,7.437v9.981c-0.484,0.084-0.988,0.172-1.508,0.249
		c-1.01,0.158-2.041,0.298-3.095,0.412c-1.046,0.119-2.099,0.207-3.132,0.272c-1.03,0.062-2.002,0.094-2.889,0.094
		c-3.133,0-5.828-0.519-8.014-1.541c-2.174-1.009-3.963-2.377-5.323-4.061c-1.377-1.705-2.396-3.705-3.033-5.941
		c-0.656-2.308-0.989-4.771-0.989-7.319c0-2.379,0.374-4.633,1.112-6.689c0.724-2.027,1.806-3.814,3.211-5.312
		c1.405-1.495,3.172-2.692,5.253-3.562c2.1-0.876,4.553-1.319,7.289-1.319c1.637,0,3.14,0.079,4.465,0.23
		c1.287,0.152,2.553,0.414,3.755,0.783c0.576,0.178,1.159,0.391,1.746,0.627c4.135,1.267,10.938-0.017,16.245-4.902l-1.961-1.094
		c-1.447-0.807-2.801-1.522-4.016-2.126c-1.24-0.615-2.461-1.15-3.626-1.585c-1.163-0.438-2.337-0.809-3.486-1.104
		c-1.143-0.297-2.377-0.53-3.669-0.702c-1.258-0.164-2.631-0.284-4.084-0.35c-1.415-0.067-3.012-0.101-4.742-0.101
		c-3.54,0-6.877,0.35-9.914,1.044c-3.036,0.694-5.84,1.677-8.324,2.912c-2.5,1.249-4.744,2.767-6.67,4.512
		c-1.936,1.747-3.576,3.7-4.877,5.797c-1.303,2.104-2.305,4.368-2.977,6.738c-0.667,2.368-1.004,4.827-1.004,7.304
		c0,2.334,0.277,4.672,0.83,6.952c0.557,2.297,1.414,4.511,2.539,6.582c1.133,2.088,2.592,4.044,4.343,5.818
		c1.749,1.786,3.843,3.344,6.217,4.633c2.358,1.282,5.071,2.297,8.066,3.018c2.981,0.719,6.339,1.08,9.978,1.08
		c3.256,0,6.216-0.11,8.796-0.328c2.593-0.221,4.973-0.536,7.071-0.93c2.112-0.396,4.077-0.874,5.851-1.421
		c1.743-0.532,3.465-1.128,5.115-1.768l1.055-0.412v-23.897H160.539z"/>
	<path fill="#FFFFFF" d="M288.305,394.189h-15.598v33.6l-20.625-25.19c-6.654-8.127-18.24-8.403-19.463-8.409h-1.479v54.124h15.603
		v-33.471l27.693,33.471h14.058L288.305,394.189z"/>
	<path fill="#FFFFFF" d="M333.179,440.426c0,0,0.014,0.018,0.017,0.021l0.372,0.413c1.522,1.632,7.476,7.454,15,7.454h10.325
		l-22.155-22.357c2.138-0.606,4.003-1.328,5.571-2.158c2.281-1.202,4.13-2.571,5.493-4.066c1.399-1.533,2.396-3.183,2.962-4.905
		c0.549-1.669,0.825-3.326,0.825-4.927c0-2.489-0.604-4.757-1.789-6.747c-1.179-1.97-2.984-3.65-5.364-4.998
		c-2.279-1.287-5.163-2.286-8.575-2.962c-3.345-0.666-7.362-1.003-11.936-1.003h-21.559v54.124h15.552l0.047-20.885
		c0.593,0.044,1.147,0.074,1.661,0.087c0.681,0.014,1.309,0.025,1.883,0.03l11.67,12.882V440.426z M322.085,417.646
		c-0.973,0-1.935-0.014-2.883-0.036c-0.412-0.007-0.822-0.021-1.234-0.046v-13.472h4.073c2.985,0,5.481,0.147,7.417,0.435
		c1.83,0.275,3.281,0.694,4.316,1.241c0.887,0.473,1.477,1.032,1.801,1.702c0.362,0.751,0.545,1.711,0.545,2.847
		c0,1.08-0.258,2.017-0.787,2.855c-0.555,0.88-1.399,1.647-2.507,2.291c-1.191,0.688-2.696,1.227-4.47,1.599
		C326.526,417.449,324.416,417.646,322.085,417.646z"/>
</g>
</svg>
